<svg width="25" height="32" viewBox="0 0 25 32" fill="none" xmlns="http://www.w3.org/2000/svg">
<path d="M-8.76188e-05 31.1992V-0.000782967H13.7759C15.9519 -0.000782967 17.8079 0.335217 19.3439 1.00722C20.8799 1.64722 22.0479 2.62322 22.8479 3.93522C23.6799 5.24722 24.0959 6.89522 24.0959 8.87922C24.0959 10.2232 23.8719 11.3752 23.4239 12.3352C23.0079 13.2952 22.4159 14.1112 21.6479 14.7832C20.8799 15.4232 19.9679 15.9192 18.9119 16.2712C17.8879 16.6232 16.7679 16.8472 15.5519 16.9432L15.4079 16.7032C17.1039 16.7672 18.5599 16.9752 19.7759 17.3272C20.9919 17.6792 21.9359 18.3192 22.6079 19.2472C23.2799 20.1752 23.6159 21.5672 23.6159 23.4232V31.1992H19.7759V23.4232C19.7759 22.1432 19.5519 21.1512 19.1039 20.4472C18.6879 19.7112 17.9679 19.1992 16.9439 18.9112C15.9519 18.5912 14.5759 18.4312 12.8159 18.4312H3.83991V31.1992H-8.76188e-05ZM3.83991 14.8312H13.7759C15.9519 14.8312 17.5679 14.2872 18.6239 13.1992C19.7119 12.0792 20.2559 10.6392 20.2559 8.87922C20.2559 7.18322 19.7119 5.88722 18.6239 4.99122C17.5679 4.06322 15.9519 3.59922 13.7759 3.59922H3.83991V14.8312Z" fill="black"/>
</svg>
